<?xml version="1.0" standalone="no"?>
<!DOCTYPE svg PUBLIC "-//W3C//DTD SVG 20010904//EN"
 "http://www.w3.org/TR/2001/REC-SVG-20010904/DTD/svg10.dtd">
<svg version="1.0" xmlns="http://www.w3.org/2000/svg"
 width="16.000000pt" height="16.000000pt" viewBox="0 0 16.000000 16.000000"
 preserveAspectRatio="xMidYMid meet">
<metadata>
Created by potrace 1.11, written by Peter Selinger 2001-2013
</metadata>
<g transform="translate(0.000000,16.000000) scale(0.000381,-0.000381)"
fill="#000000" stroke="none">
<path d="M21168 37813 c-21 -2 -38 -8 -38 -12 0 -4 -48 -11 -107 -14 -60 -4
-131 -11 -160 -16 -28 -6 -120 -15 -205 -21 -84 -6 -173 -15 -198 -20 -25 -5
-113 -14 -196 -20 -82 -5 -163 -14 -180 -19 -16 -5 -87 -12 -159 -16 -71 -3
-150 -10 -175 -15 -25 -5 -117 -14 -205 -20 -88 -6 -173 -15 -190 -20 -16 -5
-84 -12 -150 -16 -66 -3 -147 -10 -180 -15 -33 -5 -130 -16 -215 -23 -85 -8
-195 -19 -245 -25 -49 -6 -142 -15 -205 -21 -177 -17 -229 -25 -243 -39 -26
-26 -46 -498 -50 -1186 -3 -435 -7 -568 -21 -685 -21 -174 -50 -278 -80 -289
-36 -14 -55 0 -101 68 -25 36 -70 104 -101 151 -178 267 -571 660 -994 995
-69 54 -154 122 -190 151 -69 55 -125 96 -230 169 -36 26 -92 66 -125 90 -33
24 -83 57 -111 74 -29 17 -57 38 -64 46 -18 22 -31 19 -102 -21 -34 -20 -72
-40 -83 -45 -11 -6 -69 -36 -130 -68 -60 -33 -166 -88 -235 -124 -69 -36 -163
-86 -210 -111 -47 -25 -116 -61 -155 -81 -38 -20 -90 -48 -115 -62 -25 -13
-120 -64 -212 -111 -92 -48 -203 -106 -245 -128 -43 -23 -123 -65 -178 -94
-55 -29 -136 -72 -180 -96 -44 -23 -91 -48 -105 -54 -14 -6 -56 -27 -95 -47
-38 -20 -160 -82 -270 -137 -164 -83 -201 -105 -203 -124 -2 -13 2 -29 8 -37
27 -32 230 -439 335 -670 13 -27 39 -84 59 -126 20 -41 36 -79 36 -84 0 -4 9
-26 19 -49 38 -81 101 -234 101 -244 0 -6 6 -23 14 -39 33 -67 56 -125 56
-141 0 -10 6 -26 14 -37 7 -11 18 -36 24 -55 6 -19 23 -66 37 -105 15 -38 30
-83 35 -100 12 -41 41 -124 56 -160 17 -39 43 -120 55 -170 5 -22 16 -54 24
-72 8 -17 15 -40 15 -52 0 -12 9 -38 20 -58 11 -21 20 -47 20 -58 0 -20 32
-123 56 -183 8 -18 14 -41 14 -52 0 -11 9 -42 20 -70 11 -28 20 -61 20 -73 0
-12 7 -35 15 -51 8 -16 18 -47 21 -70 4 -22 11 -50 17 -60 5 -11 15 -42 22
-70 7 -28 17 -64 23 -81 38 -114 52 -162 52 -178 0 -10 9 -46 21 -80 17 -50
21 -89 23 -202 1 -98 -3 -147 -12 -163 -18 -31 -86 -72 -119 -72 -31 0 -162
33 -190 48 -10 5 -36 13 -57 17 -22 3 -49 13 -60 21 -11 8 -33 14 -48 14 -16
0 -45 9 -65 20 -21 11 -49 20 -63 20 -14 1 -36 7 -50 15 -14 8 -35 14 -48 15
-13 0 -37 8 -55 17 -18 9 -54 22 -82 29 -48 12 -68 18 -142 43 -18 6 -46 16
-63 21 -16 6 -45 15 -62 21 -18 6 -53 16 -78 21 -25 6 -54 17 -65 24 -11 8
-32 14 -48 14 -15 0 -45 9 -67 20 -22 11 -49 20 -60 20 -11 0 -37 8 -58 19
-20 10 -56 22 -79 26 -24 4 -45 10 -48 15 -3 5 -24 11 -48 15 -23 4 -54 14
-69 21 -15 8 -36 14 -48 14 -11 0 -38 9 -60 20 -22 11 -51 20 -65 20 -14 0
-36 6 -48 14 -12 8 -41 17 -64 21 -22 3 -49 13 -60 20 -10 8 -30 15 -45 15
-15 0 -47 8 -70 19 -51 22 -160 57 -205 66 -18 4 -35 11 -38 16 -11 17 -63 10
-70 -10 -3 -10 -5 -96 -4 -192 1 -112 -2 -190 -10 -218 -7 -24 -16 -82 -20
-130 -14 -151 -90 -426 -167 -606 -29 -69 -140 -294 -172 -350 -109 -189 -334
-485 -476 -625 -42 -41 -76 -82 -76 -91 0 -10 28 -40 63 -67 105 -85 338 -332
545 -581 35 -42 95 -112 132 -156 38 -44 94 -111 125 -150 31 -38 127 -157
213 -263 86 -106 180 -221 207 -255 192 -241 350 -432 429 -522 30 -33 97
-111 150 -172 53 -62 115 -128 138 -145 54 -44 173 -189 202 -247 13 -25 26
-72 30 -103 10 -92 -18 -140 -108 -182 -120 -56 -144 -66 -161 -66 -9 0 -29
-6 -43 -14 -26 -14 -96 -39 -157 -55 -16 -5 -43 -16 -60 -25 -16 -9 -40 -16
-52 -16 -12 0 -25 -4 -28 -10 -3 -5 -25 -14 -48 -20 -23 -6 -53 -17 -67 -24
-14 -8 -41 -17 -60 -21 -19 -4 -40 -12 -47 -17 -7 -6 -27 -14 -45 -18 -57 -15
-152 -50 -162 -60 -6 -6 -19 -10 -31 -10 -11 0 -38 -9 -60 -20 -22 -11 -48
-20 -60 -20 -11 0 -34 -8 -50 -19 -17 -10 -44 -21 -60 -24 -39 -7 -113 -33
-147 -52 -14 -8 -37 -15 -50 -15 -12 0 -36 -9 -53 -20 -16 -11 -40 -20 -53
-20 -12 0 -40 -9 -62 -20 -22 -11 -50 -20 -64 -20 -14 0 -28 -4 -31 -10 -3 -5
-25 -14 -48 -20 -23 -6 -55 -17 -72 -24 -36 -16 -207 -74 -253 -86 -18 -4 -43
-15 -57 -24 -13 -9 -37 -16 -52 -16 -15 0 -41 -9 -58 -20 -16 -11 -41 -20 -55
-20 -14 0 -35 -6 -46 -14 -11 -8 -38 -17 -60 -21 -21 -4 -49 -13 -61 -21 -12
-8 -33 -14 -45 -14 -13 0 -40 -9 -61 -20 -20 -11 -48 -20 -62 -20 -30 0 -127
-38 -137 -53 -4 -6 1 -21 11 -32 28 -31 151 -211 205 -300 27 -44 73 -116 101
-160 59 -91 99 -159 117 -195 6 -14 17 -32 24 -40 10 -13 39 -66 121 -218 14
-26 36 -67 50 -92 116 -209 393 -768 533 -1075 17 -38 43 -94 56 -122 38 -83
67 -150 114 -258 24 -55 58 -132 77 -172 18 -40 33 -75 33 -79 0 -4 9 -28 21
-53 38 -82 57 -125 80 -181 31 -75 58 -139 74 -175 7 -16 30 -73 50 -125 21
-52 46 -112 56 -133 11 -21 19 -43 19 -49 0 -6 9 -30 20 -54 11 -24 29 -64 40
-88 11 -24 20 -49 20 -56 0 -6 6 -24 14 -38 7 -15 23 -49 34 -77 61 -153 69
-174 110 -265 50 -112 55 -120 79 -126 15 -4 30 -1 41 9 9 8 33 18 52 22 19 4
46 13 60 21 14 7 44 18 67 24 23 6 45 15 48 20 3 6 13 10 22 10 15 0 30 6 144
59 25 11 53 21 61 21 9 0 21 7 28 15 7 8 17 15 23 15 6 0 29 8 51 18 23 11 66
29 96 42 30 12 62 26 70 31 8 5 22 12 30 15 8 4 71 33 140 66 69 32 145 68
170 80 25 11 52 25 60 30 8 4 22 11 30 14 8 3 47 21 85 39 39 19 102 48 140
65 92 42 276 129 295 141 8 5 22 12 30 15 34 14 266 126 280 135 8 5 26 14 40
19 14 6 32 15 40 20 8 6 22 13 30 16 29 12 405 196 420 205 8 5 22 12 30 15 8
4 87 42 175 85 152 75 195 90 195 70 0 -4 -11 -42 -25 -82 -14 -41 -30 -90
-35 -109 -6 -19 -22 -66 -36 -105 -14 -38 -32 -90 -39 -115 -13 -44 -19 -63
-55 -165 -19 -56 -66 -197 -87 -265 -8 -25 -21 -61 -28 -80 -7 -19 -25 -75
-41 -125 -15 -49 -31 -97 -35 -105 -8 -16 -30 -82 -53 -160 -16 -51 -32 -99
-54 -152 -8 -20 -11 -41 -8 -47 4 -5 64 -44 134 -86 70 -42 134 -81 142 -86 8
-5 33 -18 55 -29 22 -11 47 -24 55 -30 8 -5 110 -62 225 -125 116 -63 217
-120 225 -125 14 -9 285 -148 415 -212 33 -16 69 -35 80 -41 26 -14 75 -38
150 -72 33 -15 98 -45 145 -67 47 -22 105 -48 130 -59 25 -11 52 -24 61 -29 8
-4 47 -20 85 -34 38 -15 83 -33 99 -40 153 -70 216 -96 231 -96 8 0 31 -9 51
-20 21 -11 46 -20 55 -20 10 0 35 -9 55 -20 21 -11 47 -20 58 -20 11 0 30 -6
41 -14 11 -8 37 -17 57 -21 21 -4 45 -18 55 -30 17 -21 17 -29 6 -97 -7 -40
-13 -116 -14 -168 0 -52 -9 -156 -20 -230 -11 -74 -20 -172 -20 -218 0 -45 -7
-128 -16 -185 -8 -56 -19 -172 -24 -257 -5 -85 -14 -183 -20 -218 -6 -34 -12
-111 -14 -170 -3 -108 -21 -276 -34 -322 -7 -24 -11 -25 -87 -25 -44 1 -118 6
-164 13 -46 6 -159 15 -250 18 -91 3 -182 10 -202 15 -39 10 -467 31 -479 24
-3 -2 -80 3 -171 10 -225 20 -1113 31 -1324 16 -279 -19 -406 -37 -429 -60
-20 -20 -20 -22 -3 -109 9 -49 17 -111 17 -138 0 -27 5 -67 10 -89 6 -22 15
-95 20 -162 6 -68 17 -155 25 -193 8 -39 15 -101 15 -138 0 -37 9 -123 20
-192 11 -69 20 -163 20 -210 0 -47 7 -132 15 -190 9 -58 18 -177 20 -265 3
-88 12 -215 20 -283 8 -67 12 -129 8 -137 -7 -21 -40 -27 -93 -17 -25 4 -58 5
-75 1 -16 -4 -65 -7 -108 -8 -43 0 -124 -8 -180 -15 -56 -8 -161 -20 -233 -25
-72 -6 -143 -15 -158 -21 -15 -5 -60 -10 -99 -11 -40 0 -94 -4 -122 -10 -27
-5 -99 -14 -160 -20 -60 -6 -149 -19 -197 -31 -48 -11 -91 -17 -97 -14 -5 3
-47 -1 -92 -10 -46 -9 -124 -20 -174 -25 -49 -5 -110 -16 -135 -23 -25 -8 -82
-17 -128 -20 -45 -3 -90 -10 -100 -15 -9 -5 -44 -12 -77 -15 -33 -3 -89 -13
-125 -20 -117 -26 -224 -47 -283 -55 -32 -5 -70 -14 -85 -20 -15 -6 -54 -15
-87 -20 -63 -9 -180 -36 -230 -53 -16 -6 -56 -14 -88 -19 -32 -5 -71 -16 -87
-24 -16 -8 -44 -15 -62 -15 -18 0 -53 -9 -77 -20 -24 -11 -54 -20 -68 -20 -13
0 -34 -5 -45 -11 -12 -7 -44 -17 -72 -25 -106 -26 -165 -45 -192 -59 -16 -8
-39 -15 -51 -15 -12 0 -25 -4 -28 -10 -3 -5 -25 -14 -48 -20 -23 -6 -55 -17
-72 -24 -16 -8 -57 -24 -90 -36 -33 -12 -67 -26 -75 -31 -8 -5 -26 -14 -40
-20 -92 -40 -213 -99 -252 -122 -107 -64 -141 -87 -227 -156 -111 -89 -136
-131 -151 -262 -5 -46 -16 -109 -25 -139 -8 -30 -15 -73 -15 -96 0 -23 -7 -61
-15 -84 -8 -23 -15 -63 -15 -89 0 -25 -9 -78 -20 -116 -11 -38 -20 -89 -20
-112 0 -23 -6 -62 -14 -85 -8 -24 -17 -72 -21 -108 -3 -36 -12 -87 -20 -114
-8 -27 -15 -68 -15 -91 0 -23 -9 -75 -20 -116 -11 -41 -20 -93 -20 -117 0 -23
-9 -75 -20 -114 -11 -40 -20 -93 -20 -118 0 -25 -9 -79 -20 -119 -11 -41 -18
-82 -15 -91 3 -9 -4 -50 -15 -91 -11 -40 -20 -95 -20 -120 0 -25 -9 -79 -20
-120 -11 -41 -20 -96 -20 -123 0 -26 -6 -74 -14 -105 -8 -31 -18 -87 -21 -126
-4 -38 -13 -95 -21 -126 -8 -31 -14 -76 -14 -100 0 -24 -9 -80 -20 -124 -11
-44 -20 -100 -20 -125 0 -25 -9 -81 -20 -125 -11 -44 -20 -105 -20 -135 0 -30
-7 -77 -15 -105 -9 -27 -20 -93 -24 -145 -5 -52 -17 -128 -25 -169 -9 -40 -14
-81 -11 -91 3 -10 -4 -59 -15 -109 -11 -50 -20 -117 -20 -149 0 -32 -7 -84
-15 -117 -9 -32 -20 -111 -25 -175 -5 -63 -14 -131 -19 -150 -6 -19 -12 -75
-15 -125 -3 -49 -12 -123 -21 -163 -8 -40 -15 -103 -15 -140 0 -37 -7 -98 -16
-137 -8 -38 -19 -128 -24 -200 -5 -71 -14 -150 -19 -175 -6 -25 -13 -97 -16
-160 -4 -63 -13 -159 -21 -214 -8 -54 -17 -153 -19 -220 -3 -66 -10 -148 -15
-181 -6 -33 -15 -152 -19 -264 -6 -156 -11 -205 -22 -212 -12 -7 -15 -108 -17
-602 l-3 -593 43 -13 c24 -7 57 -17 73 -23 17 -6 50 -14 75 -18 25 -4 62 -15
82 -24 21 -9 51 -16 68 -16 17 0 44 -7 60 -15 16 -8 62 -19 102 -24 40 -5 107
-16 148 -24 155 -31 257 -47 315 -48 54 -1 198 -24 215 -34 4 -2 10 -134 14
-292 6 -278 11 -378 22 -473 2 -25 9 -218 14 -430 5 -212 16 -493 25 -625 8
-132 15 -325 15 -430 0 -104 7 -302 15 -440 8 -137 15 -260 15 -272 0 -49 16
-53 238 -54 178 0 541 -12 737 -25 113 -7 250 -13 420 -19 94 -3 233 -12 310
-20 77 -7 199 -16 270 -19 72 -3 148 -10 170 -16 22 -5 92 -12 155 -15 63 -4
158 -13 210 -21 52 -8 149 -18 215 -24 66 -5 144 -14 173 -19 29 -5 93 -13
142 -16 50 -3 103 -10 118 -16 15 -6 65 -13 112 -16 47 -3 108 -11 135 -19 28
-7 91 -18 140 -24 50 -6 119 -17 155 -25 36 -8 81 -15 101 -15 20 0 54 -6 75
-13 22 -8 67 -17 102 -20 35 -4 72 -12 84 -18 11 -6 55 -15 97 -19 42 -5 119
-15 171 -24 52 -9 115 -16 140 -16 25 0 77 -7 115 -15 39 -8 108 -16 155 -19
47 -2 108 -9 135 -16 28 -7 95 -15 150 -20 55 -4 152 -15 215 -24 204 -28 273
-37 370 -47 52 -5 138 -16 190 -24 52 -8 142 -19 200 -25 58 -6 130 -15 160
-20 30 -5 88 -9 129 -9 41 -1 111 -8 155 -16 45 -8 151 -19 236 -25 85 -5 184
-14 220 -19 36 -5 130 -12 210 -16 80 -3 192 -11 250 -17 98 -9 426 -22 875
-34 113 -3 198 -1 210 5 11 5 108 12 215 15 120 3 222 11 265 20 39 9 100 16
136 16 36 0 88 7 115 15 27 8 66 15 87 15 29 0 46 7 68 29 16 16 29 38 29 48
0 10 9 47 20 81 11 35 20 87 20 115 0 29 7 77 15 107 8 30 17 108 20 172 3 65
11 170 20 235 8 65 17 190 20 278 2 88 11 239 20 335 8 96 15 249 15 340 0 91
7 273 15 405 14 233 19 402 30 980 5 246 8 282 22 293 10 7 47 12 87 12 39 0
127 7 196 15 69 9 186 18 260 21 74 3 169 10 210 15 41 6 104 13 140 15 36 2
135 9 220 15 85 5 180 15 210 22 l55 12 21 70 c27 89 41 143 60 224 8 36 18
69 23 75 4 6 11 31 14 56 3 25 13 59 21 75 9 17 16 41 16 55 0 13 9 47 19 75
10 27 24 70 30 95 20 76 38 144 49 175 6 17 20 64 32 105 12 41 26 89 32 105
5 17 16 53 24 80 18 69 43 144 60 183 8 18 14 42 14 53 0 11 7 36 16 57 9 20
20 53 25 72 8 36 30 106 53 170 8 19 24 69 36 110 13 41 31 98 40 125 10 28
23 66 30 85 6 19 17 55 24 80 7 25 18 56 25 67 6 12 11 30 11 40 1 10 9 36 20
58 11 22 19 48 20 58 0 10 7 31 15 46 8 16 19 46 24 67 5 22 21 71 36 109 14
39 31 87 36 109 5 21 16 48 24 60 8 11 15 31 15 44 0 13 7 37 17 55 9 18 20
46 24 62 11 43 39 125 54 160 16 37 32 85 52 150 9 28 19 55 23 60 4 6 11 26
15 45 4 19 13 44 20 55 7 11 16 36 20 55 4 19 14 44 21 55 8 11 14 29 14 40 0
11 7 34 16 50 9 17 20 44 24 60 5 17 20 62 35 100 14 39 31 86 37 105 6 19 17
44 24 55 8 11 14 26 14 35 0 8 9 38 20 67 12 29 30 79 42 110 11 32 26 72 33
88 7 17 18 45 24 63 27 79 105 286 126 337 7 17 22 56 34 88 12 31 30 83 42
115 12 31 27 71 34 87 7 17 22 57 34 90 13 33 31 80 41 105 10 25 28 72 40
105 13 33 29 72 36 87 8 14 14 32 14 40 0 7 6 25 14 40 8 14 19 43 26 63 7 20
18 49 26 63 8 15 14 34 14 43 0 8 7 24 15 35 8 10 15 26 15 34 0 8 9 32 20 53
11 20 20 43 20 49 1 7 9 31 20 53 11 22 19 46 20 53 0 6 9 29 20 49 11 21 20
43 20 50 0 6 6 24 14 40 18 35 40 90 111 273 31 80 65 163 75 185 11 22 31 71
46 109 14 38 30 77 34 85 4 9 18 43 30 76 12 33 30 78 40 100 10 22 28 65 40
95 12 30 27 69 35 85 7 17 25 59 40 95 34 85 39 96 63 150 11 25 23 56 27 70
4 14 14 34 21 45 8 11 14 26 15 35 1 32 123 255 245 445 41 64 43 71 27 83 -9
6 -41 12 -71 12 -29 0 -61 4 -71 9 -10 6 -94 13 -187 16 -93 4 -194 13 -224
20 -30 7 -91 16 -135 20 -43 3 -106 13 -140 20 -33 8 -80 15 -105 15 -25 0
-87 9 -139 20 -52 11 -112 20 -135 20 -23 0 -63 7 -91 15 -27 9 -74 16 -104
16 -30 1 -73 8 -95 16 -23 8 -79 18 -126 23 -47 5 -110 16 -140 25 -30 8 -75
15 -101 15 -26 0 -65 7 -88 15 -23 8 -81 19 -129 25 -48 5 -116 16 -152 25
-36 8 -81 15 -100 15 -19 0 -57 7 -84 15 -27 8 -71 15 -98 15 -26 0 -81 9
-120 20 -40 11 -93 20 -118 20 -25 0 -67 7 -94 15 -26 8 -78 17 -115 21 -36 3
-88 12 -115 20 -27 8 -68 14 -90 14 -23 0 -70 9 -104 20 -35 11 -83 20 -107
20 -23 0 -62 7 -86 15 -24 9 -71 18 -104 21 -33 3 -80 12 -105 20 -25 7 -72
16 -105 20 -33 3 -82 12 -109 20 -27 8 -66 14 -86 14 -20 0 -59 7 -86 15 -27
9 -80 20 -119 25 -73 9 -185 31 -292 56 -34 8 -76 14 -95 14 -18 0 -65 9 -103
20 -38 11 -89 20 -111 20 -23 0 -61 7 -85 15 -24 9 -71 19 -104 22 -33 3 -77
12 -99 20 -21 7 -55 13 -75 13 -20 0 -62 9 -94 20 -31 11 -73 20 -94 20 -21 1
-63 9 -93 20 -30 11 -74 19 -96 20 -23 0 -57 6 -75 14 -19 8 -56 17 -84 21
-27 4 -66 12 -85 19 -19 8 -57 17 -83 20 -26 4 -63 14 -82 22 -19 8 -48 14
-64 14 -16 0 -53 8 -83 19 -29 10 -80 26 -113 36 -33 9 -96 35 -140 57 -159
80 -203 157 -132 226 18 18 38 32 44 32 6 0 16 6 22 14 16 19 119 51 232 71
79 15 105 15 150 6 30 -7 122 -16 204 -21 83 -6 195 -16 250 -25 55 -8 128
-15 162 -15 34 0 73 -4 88 -10 14 -5 78 -15 143 -21 64 -6 152 -17 195 -25 42
-8 108 -14 145 -14 37 -1 105 -9 152 -19 47 -9 117 -19 155 -20 39 -1 97 -9
130 -16 33 -8 110 -19 170 -25 61 -5 148 -16 195 -24 47 -8 103 -15 125 -15
22 -1 72 -8 110 -16 39 -8 95 -15 125 -15 30 0 99 -9 153 -20 120 -24 209 -26
227 -5 16 19 27 283 34 780 3 204 10 420 16 480 5 61 12 263 15 450 4 187 13
426 20 530 8 105 18 294 21 420 6 198 10 242 31 320 13 50 29 113 34 140 6 28
17 82 26 120 9 39 19 122 24 185 4 63 12 137 19 164 6 27 15 146 20 265 6 119
14 275 20 346 5 72 9 234 10 360 0 212 2 233 20 263 11 18 20 37 20 43 0 21
47 72 85 92 57 29 185 27 241 -4 102 -57 188 -196 229 -369 7 -30 18 -68 24
-83 6 -16 11 -45 11 -65 0 -20 9 -66 20 -100 11 -35 20 -85 20 -110 0 -26 7
-69 15 -96 8 -27 17 -86 20 -130 3 -45 10 -97 16 -116 6 -19 15 -87 19 -150 5
-63 16 -146 25 -185 8 -38 15 -104 15 -145 0 -86 32 -306 47 -321 14 -14 119
-49 148 -49 14 0 42 -7 62 -15 19 -8 50 -15 68 -15 18 0 50 -7 71 -16 22 -9
62 -20 89 -25 56 -9 148 -32 245 -60 36 -11 77 -19 91 -19 15 0 43 -7 62 -15
20 -8 50 -15 66 -15 17 0 53 -9 81 -20 28 -11 66 -20 84 -20 19 0 49 -7 69
-15 19 -8 59 -19 88 -24 71 -13 173 -38 230 -56 26 -8 59 -15 73 -15 15 0 52
-9 83 -20 32 -11 72 -20 91 -20 18 0 46 -7 62 -15 16 -9 51 -18 77 -21 27 -3
65 -12 86 -20 20 -8 51 -14 67 -14 16 0 52 -9 80 -20 28 -11 67 -20 86 -20 19
0 48 -7 63 -15 16 -8 56 -19 89 -24 34 -5 69 -14 80 -20 10 -5 43 -13 73 -17
30 -4 68 -13 86 -21 18 -7 45 -13 61 -13 16 0 55 -9 87 -20 32 -11 70 -20 85
-20 15 0 43 -7 63 -15 19 -8 59 -19 88 -24 61 -12 160 -35 235 -57 28 -7 61
-14 73 -14 12 0 47 -9 78 -20 32 -11 72 -20 91 -20 18 0 46 -7 61 -14 15 -8
52 -18 82 -22 30 -4 68 -13 86 -21 18 -7 48 -13 68 -13 20 0 49 -7 65 -15 16
-8 55 -19 87 -25 61 -9 157 -32 233 -55 25 -7 67 -17 95 -21 27 -4 64 -13 82
-20 18 -8 46 -14 63 -14 17 0 47 -7 68 -15 20 -9 61 -20 92 -25 52 -8 76 -14
183 -41 23 -6 78 -19 122 -29 44 -10 93 -23 108 -29 16 -6 40 -11 55 -11 15 0
55 -10 89 -22 100 -36 108 -14 67 185 -8 38 -14 92 -14 120 0 29 -7 81 -15
117 -8 36 -19 106 -25 155 -5 50 -16 115 -25 145 -8 30 -15 74 -15 98 0 23 -9
75 -20 114 -11 40 -20 91 -20 114 0 22 -7 63 -15 90 -8 27 -18 83 -21 124 -3
41 -12 100 -20 131 -8 31 -14 81 -14 110 0 30 -9 86 -20 124 -11 38 -20 88
-20 110 0 22 -9 73 -20 114 -11 41 -20 89 -20 107 0 17 -7 50 -15 73 -8 23
-17 65 -21 94 -3 29 -12 69 -20 90 -8 20 -14 53 -14 72 0 19 -9 57 -20 85 -11
28 -20 64 -20 81 0 16 -6 45 -14 64 -8 19 -18 56 -22 82 -3 26 -12 64 -20 83
-7 19 -15 53 -19 75 -3 22 -13 60 -20 85 -8 25 -24 83 -36 130 -11 47 -27 105
-34 130 -7 25 -16 65 -19 89 -4 24 -13 56 -21 72 -8 15 -15 47 -15 71 0 24 -7
86 -15 138 -8 52 -15 149 -15 215 0 66 7 163 15 215 8 52 15 113 15 134 0 21
12 74 26 118 39 118 92 161 157 127 12 -7 146 -136 297 -289 292 -294 428
-411 674 -580 83 -57 206 -135 231 -147 17 -8 48 -25 70 -38 22 -14 51 -29 65
-35 14 -5 32 -15 40 -20 8 -6 22 -13 30 -16 15 -6 57 -25 141 -63 25 -12 54
-21 64 -21 10 0 26 -6 34 -13 18 -15 89 -41 167 -61 27 -7 56 -16 63 -20 7 -5
40 -12 74 -17 34 -5 94 -15 132 -24 39 -8 115 -14 169 -15 l99 0 61 63 c34 34
131 134 216 222 336 348 496 512 765 785 154 157 345 353 425 435 274 285 476
492 895 919 253 259 421 437 423 451 2 16 -22 47 -94 121 -53 54 -167 171
-253 259 -86 88 -237 246 -336 350 -98 105 -256 269 -350 365 -93 97 -260 272
-369 390 -110 118 -247 265 -306 325 -119 123 -430 458 -617 665 -113 125
-246 292 -275 345 -29 54 -32 69 -34 151 -2 74 2 105 21 160 l23 69 48 -4 c27
-2 60 -9 74 -16 14 -7 47 -16 73 -19 26 -4 63 -14 82 -22 19 -8 49 -14 67 -14
18 0 46 -7 62 -15 16 -8 47 -18 70 -21 22 -3 67 -14 99 -25 31 -10 74 -19 95
-19 20 0 55 -6 77 -14 22 -7 72 -16 112 -19 39 -3 80 -10 90 -15 10 -6 60 -15
110 -21 51 -6 105 -16 120 -22 15 -5 70 -14 122 -19 53 -5 121 -13 151 -19 30
-6 118 -15 195 -21 77 -6 176 -15 220 -20 106 -11 886 -11 995 1 47 5 158 15
247 23 89 8 170 19 180 24 10 5 47 12 83 14 36 3 93 13 128 23 l62 18 -1 206
c0 113 -5 231 -10 261 -6 30 -14 143 -19 250 -4 107 -16 260 -25 339 -9 79
-15 158 -12 174 5 39 -9 289 -23 387 -5 41 -12 154 -15 251 -2 96 -11 236 -19
310 -8 74 -17 211 -20 304 -4 94 -11 202 -16 240 -6 39 -15 167 -20 285 -5
118 -16 267 -24 330 -8 63 -14 161 -15 217 0 86 -19 264 -36 339 -3 12 -22 29
-47 42 -68 32 -151 62 -174 62 -12 0 -38 7 -57 15 -20 8 -53 15 -74 15 -21 1
-56 8 -78 16 -22 8 -76 17 -120 20 -44 4 -102 13 -130 21 -27 8 -129 18 -225
24 -96 5 -211 13 -255 19 -106 13 -1092 13 -1270 1 -77 -6 -288 -15 -470 -21
-181 -6 -348 -15 -370 -20 -22 -5 -130 -12 -240 -16 -110 -3 -265 -10 -345
-16 -234 -16 -556 -24 -675 -16 -194 13 -359 34 -390 51 -16 9 -36 17 -43 17
-7 0 -17 11 -24 25 -9 20 -7 37 11 88 11 35 21 76 21 91 0 14 6 41 14 59 7 18
16 55 20 82 4 28 14 70 21 95 22 75 46 172 55 230 5 31 16 72 25 92 8 21 15
51 15 67 0 16 5 42 11 58 7 15 18 57 25 93 7 36 18 85 24 110 12 47 27 110 41
173 9 35 14 57 40 160 22 88 32 134 41 187 4 30 15 72 23 93 8 20 15 51 15 67
0 17 9 56 20 87 11 32 20 72 20 90 0 19 6 49 14 67 7 18 17 57 21 87 3 30 13
72 20 94 8 22 16 63 20 92 3 28 12 68 20 87 8 19 15 51 15 71 0 19 9 61 20 92
11 32 20 77 20 100 0 24 7 60 15 80 9 21 18 64 21 98 3 33 13 82 21 109 9 27
16 84 17 125 l1 76 -160 12 c-377 27 -472 35 -510 44 -22 6 -83 14 -135 19
-52 5 -120 16 -150 25 -30 8 -73 15 -96 15 -23 0 -58 7 -77 15 -20 8 -54 15
-76 15 -22 0 -62 8 -88 19 -26 10 -68 22 -93 25 -25 4 -65 13 -90 21 -25 7
-65 16 -90 20 -24 3 -49 10 -55 15 -5 4 -32 13 -60 18 -27 6 -72 18 -100 27
-27 10 -63 22 -80 27 -16 6 -50 14 -75 18 -25 4 -58 14 -75 23 -16 9 -40 17
-52 17 -12 0 -34 6 -50 14 -34 16 -114 44 -167 57 -21 5 -48 16 -60 24 -11 8
-32 15 -46 15 -14 0 -36 7 -49 16 -13 9 -37 20 -55 24 -48 12 -97 30 -136 50
-19 9 -51 20 -71 24 -21 4 -42 13 -49 21 -7 8 -20 15 -30 15 -16 0 -76 23
-145 55 -16 7 -55 23 -85 35 -30 12 -68 27 -85 35 -16 7 -50 22 -75 32 -67 29
-93 42 -110 52 -8 6 -37 20 -65 31 -27 12 -68 30 -90 40 -22 11 -62 28 -90 40
-27 12 -57 26 -65 31 -8 5 -22 12 -30 15 -28 11 -105 45 -120 54 -8 5 -96 50
-195 100 -212 107 -204 104 -230 119 -11 6 -36 19 -55 27 -19 9 -37 20 -40 24
-5 7 -14 12 -125 70 -33 18 -78 43 -100 56 -22 13 -54 31 -72 39 -17 8 -34 19
-38 25 -25 40 -98 -25 -325 -290 -111 -130 -194 -232 -248 -309 -44 -61 -273
-296 -341 -349 -58 -46 -107 -56 -117 -24 -3 9 -11 31 -19 47 -8 17 -28 62
-46 100 -17 39 -42 95 -56 125 -14 30 -33 73 -43 95 -10 22 -37 80 -59 128
-23 49 -41 90 -41 92 0 2 -18 43 -41 92 -119 255 -139 302 -139 322 0 8 -11
38 -24 66 -28 56 -118 249 -146 310 -69 152 -87 191 -132 285 -27 58 -53 112
-59 120 -5 8 -14 26 -19 40 -13 31 -35 76 -203 420 -73 151 -140 290 -148 308
l-14 32 -135 -2 c-74 -1 -152 -3 -172 -5z"/>
</g>
</svg>
